<?xml version="1.0" encoding="UTF-8" standalone="no"?><!DOCTYPE svg PUBLIC "-//W3C//DTD SVG 1.1//EN" "http://www.w3.org/Graphics/SVG/1.1/DTD/svg11.dtd"><svg width="100%" height="100%" viewBox="0 0 147 51" version="1.1" xmlns="http://www.w3.org/2000/svg" xmlns:xlink="http://www.w3.org/1999/xlink" xml:space="preserve" style="fill-rule:evenodd;clip-rule:evenodd;stroke-miterlimit:10;"><g id="Layer1"><path d="M51.622,9.873c-0.345,-0.506 -0.847,-0.759 -1.507,-0.759c-0.205,0 -0.407,0.028 -0.605,0.083c-0.198,0.055 -0.376,0.139 -0.533,0.253c-0.158,0.113 -0.285,0.26 -0.38,0.44c-0.095,0.179 -0.143,0.39 -0.143,0.632c0,0.352 0.099,0.625 0.297,0.82c0.198,0.194 0.444,0.353 0.737,0.478c0.293,0.125 0.614,0.237 0.963,0.336c0.348,0.099 0.669,0.231 0.962,0.396c0.293,0.165 0.539,0.383 0.737,0.654c0.198,0.271 0.297,0.642 0.297,1.111c0,0.352 -0.075,0.669 -0.225,0.952c-0.151,0.282 -0.349,0.518 -0.594,0.709c-0.246,0.191 -0.521,0.337 -0.825,0.44c-0.305,0.103 -0.611,0.154 -0.919,0.154c-0.477,0 -0.929,-0.09 -1.358,-0.269c-0.429,-0.18 -0.794,-0.475 -1.095,-0.886l0.715,-0.517c0.169,0.286 0.403,0.515 0.704,0.688c0.301,0.172 0.656,0.258 1.067,0.258c0.198,0 0.396,-0.031 0.594,-0.093c0.198,-0.063 0.376,-0.154 0.534,-0.275c0.157,-0.121 0.287,-0.27 0.39,-0.446c0.103,-0.176 0.154,-0.378 0.154,-0.605c0,-0.271 -0.057,-0.497 -0.17,-0.676c-0.114,-0.18 -0.264,-0.33 -0.451,-0.451c-0.187,-0.121 -0.4,-0.222 -0.638,-0.303c-0.239,-0.081 -0.484,-0.161 -0.737,-0.242c-0.253,-0.081 -0.499,-0.172 -0.737,-0.275c-0.239,-0.103 -0.451,-0.233 -0.638,-0.39c-0.187,-0.158 -0.338,-0.356 -0.451,-0.594c-0.114,-0.239 -0.171,-0.538 -0.171,-0.897c0,-0.374 0.072,-0.7 0.215,-0.979c0.143,-0.279 0.333,-0.51 0.572,-0.693c0.238,-0.183 0.507,-0.319 0.808,-0.407c0.301,-0.088 0.609,-0.132 0.924,-0.132c0.44,0 0.84,0.07 1.199,0.209c0.359,0.139 0.693,0.385 1.001,0.737l-0.693,0.539Z" style="fill:#fff;fill-rule:nonzero;"/><rect x="61.439" y="8.586" width="0.792" height="7.788" style="fill:#fff;fill-rule:nonzero;"/><path d="M72.521,12.029l1.408,0c0.352,0 0.651,-0.037 0.897,-0.11c0.245,-0.073 0.442,-0.17 0.588,-0.291c0.147,-0.121 0.253,-0.264 0.319,-0.429c0.066,-0.165 0.099,-0.343 0.099,-0.534c0,-0.183 -0.033,-0.357 -0.099,-0.522c-0.066,-0.165 -0.172,-0.31 -0.319,-0.435c-0.146,-0.125 -0.343,-0.222 -0.588,-0.291c-0.246,-0.07 -0.545,-0.105 -0.897,-0.105l-1.408,0l0,2.717Zm0,4.345l-0.792,0l0,-7.788l2.398,0c0.792,0 1.417,0.172 1.876,0.517c0.458,0.345 0.687,0.865 0.687,1.562c0,0.543 -0.17,0.999 -0.511,1.37c-0.341,0.37 -0.834,0.584 -1.48,0.643l2.244,3.696l-0.968,0l-2.134,-3.619l-1.32,0l0,3.619Z" style="fill:#fff;fill-rule:nonzero;"/><path d="M86.43,15.648l4.169,0l0,0.726l-4.961,0l0,-7.788l4.829,0l0,0.726l-4.037,0l0,2.651l3.773,0l0,0.726l-3.773,0l0,2.959Z" style="fill:#fff;fill-rule:nonzero;"/><path d="M105.18,15.186l0.022,0l0,-6.6l0.792,0l0,7.788l-0.99,0l-4.642,-6.666l-0.022,0l0,6.666l-0.792,0l0,-7.788l0.99,0l4.642,6.6Z" style="fill:#fff;fill-rule:nonzero;"/><rect x="115.492" y="8.586" width="0.792" height="7.788" style="fill:#fff;fill-rule:nonzero;"/><path d="M126.805,13.602l3.377,0l-1.683,-4.092l-1.694,4.092Zm-1.155,2.772l-0.924,0l3.388,-7.788l0.77,0l3.388,7.788l-0.924,0l-0.858,-2.046l-3.982,0l-0.858,2.046Z" style="fill:#fff;fill-rule:nonzero;"/><path d="M51.984,25.315l2.451,0l5.852,13.452l-3.344,0l-1.159,-2.85l-5.225,0l-1.121,2.85l-3.268,0l5.814,-13.452Zm1.14,3.914l-1.634,4.18l3.287,0l-1.653,-4.18Z" style="fill:#fff;fill-rule:nonzero;"/><path d="M61.948,29.533l2.736,0l0,1.254l0.038,0c0.089,-0.177 0.216,-0.355 0.38,-0.532c0.165,-0.177 0.361,-0.336 0.589,-0.475c0.228,-0.139 0.488,-0.253 0.779,-0.342c0.292,-0.089 0.608,-0.133 0.95,-0.133c0.722,0 1.305,0.111 1.748,0.333c0.444,0.221 0.789,0.528 1.036,0.921c0.247,0.393 0.415,0.855 0.503,1.387c0.089,0.532 0.133,1.108 0.133,1.729l0,5.092l-2.85,0l0,-4.522c0,-0.266 -0.009,-0.541 -0.028,-0.826c-0.019,-0.285 -0.076,-0.548 -0.171,-0.789c-0.095,-0.241 -0.241,-0.437 -0.437,-0.589c-0.197,-0.152 -0.478,-0.228 -0.846,-0.228c-0.367,0 -0.665,0.067 -0.893,0.2c-0.228,0.133 -0.402,0.31 -0.522,0.532c-0.121,0.221 -0.2,0.471 -0.238,0.75c-0.038,0.279 -0.057,0.57 -0.057,0.874l0,4.598l-2.85,0l0,-9.234Z" style="fill:#fff;fill-rule:nonzero;"/><path d="M79.322,37.608l-0.038,0c-0.316,0.494 -0.737,0.849 -1.263,1.064c-0.526,0.215 -1.08,0.323 -1.663,0.323c-0.43,0 -0.845,-0.06 -1.244,-0.18c-0.399,-0.121 -0.751,-0.301 -1.055,-0.542c-0.304,-0.241 -0.544,-0.538 -0.722,-0.893c-0.177,-0.355 -0.266,-0.766 -0.266,-1.235c0,-0.532 0.099,-0.982 0.295,-1.349c0.196,-0.367 0.462,-0.671 0.798,-0.912c0.336,-0.241 0.719,-0.427 1.149,-0.56c0.431,-0.133 0.878,-0.232 1.34,-0.295c0.462,-0.063 0.925,-0.101 1.387,-0.114c0.462,-0.013 0.89,-0.019 1.282,-0.019c0,-0.507 -0.18,-0.909 -0.541,-1.206c-0.361,-0.298 -0.789,-0.447 -1.283,-0.447c-0.468,0 -0.896,0.098 -1.282,0.295c-0.386,0.196 -0.732,0.465 -1.036,0.807l-1.52,-1.558c0.532,-0.494 1.153,-0.864 1.862,-1.111c0.71,-0.247 1.444,-0.371 2.204,-0.371c0.836,0 1.524,0.105 2.062,0.314c0.538,0.209 0.969,0.516 1.292,0.921c0.323,0.405 0.548,0.903 0.674,1.492c0.127,0.589 0.19,1.269 0.19,2.042l0,4.693l-2.622,0l0,-1.159Zm-0.703,-2.888c-0.215,0 -0.484,0.01 -0.807,0.029c-0.323,0.019 -0.633,0.072 -0.931,0.161c-0.298,0.089 -0.551,0.222 -0.76,0.399c-0.209,0.177 -0.314,0.424 -0.314,0.741c0,0.342 0.146,0.595 0.437,0.76c0.292,0.165 0.596,0.247 0.912,0.247c0.279,0 0.548,-0.038 0.808,-0.114c0.26,-0.076 0.491,-0.184 0.693,-0.323c0.203,-0.139 0.365,-0.317 0.485,-0.532c0.12,-0.215 0.18,-0.469 0.18,-0.76l0,-0.608l-0.703,0Z" style="fill:#fff;fill-rule:nonzero;"/><rect x="84.441" y="24.403" width="2.85" height="14.364" style="fill:#fff;fill-rule:nonzero;"/><path d="M95.337,40.268c-0.19,0.494 -0.374,0.931 -0.551,1.311c-0.178,0.38 -0.403,0.7 -0.675,0.96c-0.272,0.259 -0.617,0.456 -1.035,0.589c-0.418,0.133 -0.969,0.199 -1.653,0.199c-0.735,0 -1.444,-0.114 -2.128,-0.342l0.38,-2.337c0.43,0.19 0.874,0.285 1.33,0.285c0.316,0 0.576,-0.035 0.779,-0.104c0.202,-0.07 0.37,-0.171 0.503,-0.304c0.133,-0.133 0.244,-0.295 0.333,-0.485c0.088,-0.19 0.183,-0.412 0.285,-0.665l0.209,-0.532l-4.047,-9.31l3.078,0l2.375,6.099l0.038,0l2.033,-6.099l2.926,0l-4.18,10.735Z" style="fill:#fff;fill-rule:nonzero;"/><path d="M107.543,31.813l-2.508,0l0,3.078c0,0.253 0.012,0.485 0.038,0.694c0.025,0.209 0.082,0.389 0.171,0.541c0.088,0.152 0.225,0.269 0.408,0.352c0.184,0.082 0.428,0.123 0.732,0.123c0.152,0 0.351,-0.016 0.598,-0.047c0.247,-0.032 0.434,-0.105 0.561,-0.219l0,2.375c-0.317,0.114 -0.646,0.19 -0.988,0.228c-0.342,0.038 -0.678,0.057 -1.007,0.057c-0.482,0 -0.925,-0.051 -1.33,-0.152c-0.406,-0.101 -0.76,-0.263 -1.064,-0.484c-0.304,-0.222 -0.542,-0.51 -0.713,-0.865c-0.171,-0.355 -0.256,-0.785 -0.256,-1.292l0,-4.389l-1.824,0l0,-2.28l1.824,0l0,-2.736l2.85,0l0,2.736l2.508,0l0,2.28Z" style="fill:#fff;fill-rule:nonzero;"/><path d="M109.698,29.533l2.85,0l0,9.234l-2.85,0l0,-9.234Zm-0.228,-2.907c0,-0.456 0.161,-0.845 0.484,-1.168c0.323,-0.323 0.713,-0.485 1.169,-0.485c0.456,0 0.845,0.162 1.168,0.485c0.323,0.323 0.485,0.712 0.485,1.168c0,0.456 -0.162,0.846 -0.485,1.169c-0.323,0.323 -0.712,0.484 -1.168,0.484c-0.456,0 -0.846,-0.161 -1.169,-0.484c-0.323,-0.323 -0.484,-0.713 -0.484,-1.169Z" style="fill:#fff;fill-rule:nonzero;"/><path d="M121.524,32.516c-0.139,-0.203 -0.336,-0.37 -0.589,-0.503c-0.253,-0.133 -0.526,-0.2 -0.817,-0.2c-0.722,0 -1.282,0.215 -1.681,0.646c-0.399,0.431 -0.599,0.994 -0.599,1.691c0,0.697 0.2,1.26 0.599,1.691c0.399,0.431 0.959,0.646 1.681,0.646c0.317,0 0.589,-0.07 0.817,-0.209c0.228,-0.139 0.424,-0.304 0.589,-0.494l1.881,1.976c-0.443,0.456 -0.966,0.776 -1.567,0.96c-0.602,0.183 -1.175,0.275 -1.72,0.275c-0.709,0 -1.377,-0.114 -2.004,-0.342c-0.627,-0.228 -1.172,-0.554 -1.634,-0.978c-0.463,-0.425 -0.827,-0.935 -1.093,-1.53c-0.266,-0.595 -0.399,-1.26 -0.399,-1.995c0,-0.735 0.133,-1.4 0.399,-1.995c0.266,-0.595 0.63,-1.105 1.093,-1.529c0.462,-0.425 1.007,-0.751 1.634,-0.979c0.627,-0.228 1.295,-0.342 2.004,-0.342c0.545,0 1.118,0.092 1.72,0.276c0.601,0.183 1.124,0.503 1.567,0.959l-1.881,1.976Z" style="fill:#fff;fill-rule:nonzero;"/><path d="M130.329,32.25c-0.418,-0.519 -0.969,-0.779 -1.653,-0.779c-0.24,0 -0.475,0.057 -0.703,0.171c-0.228,0.114 -0.342,0.31 -0.342,0.589c0,0.228 0.117,0.396 0.352,0.504c0.234,0.107 0.532,0.202 0.893,0.285c0.361,0.082 0.747,0.171 1.159,0.266c0.411,0.095 0.798,0.243 1.159,0.446c0.361,0.203 0.658,0.478 0.893,0.827c0.234,0.348 0.351,0.813 0.351,1.396c0,0.595 -0.13,1.086 -0.389,1.473c-0.26,0.386 -0.592,0.696 -0.998,0.931c-0.405,0.234 -0.861,0.399 -1.368,0.494c-0.506,0.095 -1.007,0.142 -1.501,0.142c-0.646,0 -1.298,-0.092 -1.957,-0.275c-0.658,-0.184 -1.216,-0.51 -1.672,-0.979l1.729,-1.919c0.266,0.329 0.561,0.58 0.884,0.751c0.323,0.171 0.7,0.256 1.13,0.256c0.33,0 0.627,-0.047 0.893,-0.142c0.266,-0.095 0.399,-0.27 0.399,-0.523c0,-0.241 -0.117,-0.421 -0.351,-0.541c-0.235,-0.121 -0.532,-0.222 -0.893,-0.304c-0.361,-0.083 -0.748,-0.171 -1.159,-0.266c-0.412,-0.095 -0.798,-0.238 -1.159,-0.428c-0.361,-0.19 -0.659,-0.459 -0.893,-0.807c-0.235,-0.349 -0.352,-0.814 -0.352,-1.397c0,-0.545 0.111,-1.013 0.333,-1.406c0.221,-0.393 0.513,-0.716 0.874,-0.969c0.361,-0.253 0.776,-0.44 1.244,-0.56c0.469,-0.121 0.944,-0.181 1.425,-0.181c0.608,0 1.223,0.089 1.843,0.266c0.621,0.177 1.147,0.494 1.577,0.95l-1.748,1.729Z" style="fill:#fff;fill-rule:nonzero;"/><path d="M22.973,43.031c9.786,0 17.719,-8.096 17.719,-18.082c0,-9.987 -7.933,-18.083 -17.719,-18.083c-9.786,0 -17.72,8.096 -17.72,18.083c0,9.986 7.934,18.082 17.72,18.082Z" style="fill:none;stroke:#fff;stroke-width:2px;"/><clipPath id="_clip1"><path d="M24.017,42.938c-0.444,0.075 -2.474,0.039 -2.987,0c-1.963,-0.152 -3.255,-0.881 -3.255,-0.881c0,0 -2.658,-5.433 0,-10.095c2.658,-4.661 6.632,-6.161 6.632,-6.161c0,0 -2.493,3.739 -1.576,8.488c0.918,4.748 4.624,7.768 4.624,7.768c0,0 -0.707,0.415 -3.438,0.881Z"/></clipPath><g clip-path="url(#_clip1)"><rect x="16.226" y="25.432" width="11.598" height="17.918" style="fill:#fff;fill-rule:nonzero;stroke:#000;stroke-width:2px;stroke-linejoin:round;stroke-miterlimit:1.41421;"/></g><path d="M24.017,42.938c-0.444,0.075 -2.474,0.039 -2.987,0c-1.963,-0.152 -3.255,-0.881 -3.255,-0.881c0,0 -2.658,-5.433 0,-10.095c2.658,-4.661 6.632,-6.161 6.632,-6.161c0,0 -2.493,3.739 -1.576,8.488c0.918,4.748 4.624,7.768 4.624,7.768c0,0 -0.707,0.415 -3.438,0.881Z" style="fill:none;stroke:#fff;stroke-width:2px;"/><clipPath id="_clip2"><path d="M24.457,25.831c0,0 1.978,-3.082 1.52,-6.26c-0.459,-3.177 -3.26,-4.985 -3.26,-4.985c0,0 -1.866,2.014 -1.449,5.623c0.416,3.608 3.189,5.622 3.189,5.622Z"/></clipPath><g clip-path="url(#_clip2)"><rect x="20.839" y="14.218" width="5.575" height="11.982" style="fill:#fff;fill-rule:nonzero;stroke:#000;stroke-width:2px;stroke-linejoin:round;stroke-miterlimit:1.41421;"/></g><path d="M24.457,25.831c0,0 1.978,-3.082 1.52,-6.26c-0.459,-3.177 -3.26,-4.985 -3.26,-4.985c0,0 -1.866,2.014 -1.449,5.623c0.416,3.608 3.189,5.622 3.189,5.622Z" style="fill:none;stroke:#fff;stroke-width:2px;"/><clipPath id="_clip3"><path d="M24.262,25.692c0,0 2.466,2.708 5.653,3.088c3.188,0.379 5.659,-1.858 5.659,-1.858c0,0 -1.462,-2.324 -5.055,-2.856c-3.594,-0.531 -6.257,1.626 -6.257,1.626Z"/></clipPath><g clip-path="url(#_clip3)"><path d="M36.416,25.202l-1.443,5.386l-11.573,-3.101l1.443,-5.386l11.573,3.101Z" style="fill:#fff;fill-rule:nonzero;stroke:#000;stroke-width:2px;stroke-linejoin:round;stroke-miterlimit:1.41421;"/></g><path d="M24.262,25.692c0,0 2.466,2.708 5.653,3.088c3.188,0.379 5.659,-1.858 5.659,-1.858c0,0 -1.462,-2.324 -5.055,-2.856c-3.594,-0.531 -6.257,1.626 -6.257,1.626Z" style="fill:none;stroke:#fff;stroke-width:2px;"/></g></svg>